<svg width="65" height="28" viewBox="0 0 65 28" fill="none" xmlns="http://www.w3.org/2000/svg">
<path d="M16.9583 17.595C16.2623 19.1518 15.1294 20.4746 13.6961 21.4041C12.2628 22.3335 10.5904 22.8299 8.88058 22.8333C7.17071 22.8366 5.49636 22.3469 4.05939 21.4232C2.62243 20.4994 1.48421 19.1811 0.78197 17.627C0.079726 16.073 -0.15656 14.3497 0.1016 12.6648C0.359761 10.9799 1.10135 9.40548 2.23694 8.13126C3.37254 6.85703 4.85366 5.93744 6.50174 5.48337C8.14982 5.02929 9.89448 5.06012 11.5254 5.57212L10.4472 8.98459C9.47674 8.67993 8.43861 8.66159 7.45795 8.93178C6.47729 9.20197 5.59597 9.74916 4.92025 10.5074C4.24453 11.2656 3.80326 12.2024 3.64965 13.205C3.49604 14.2075 3.63663 15.233 4.05449 16.1577C4.47235 17.0824 5.14963 17.8668 6.00467 18.4165C6.85971 18.9662 7.85601 19.2576 8.87344 19.2555C9.89087 19.2535 10.886 18.9582 11.7388 18.4051C12.5917 17.8521 13.2658 17.0649 13.68 16.1386L16.9583 17.595Z" fill="#242731"/>
<path d="M11.2249 9.5813H20.6787V12.8992H11.2249V9.5813Z" fill="#796EFF"/>
<path d="M14.181 15.655L14.181 6.82039L17.7262 6.82039L17.7262 15.655L14.181 15.655Z" fill="#796EFF"/>
<path d="M29.0337 19.4987H25.0035V8.59537H29.0284C30.1393 8.59537 31.0958 8.81365 31.898 9.25021C32.7036 9.68322 33.3248 10.3079 33.7613 11.1242C34.1979 11.937 34.4162 12.9095 34.4162 14.0417C34.4162 15.1775 34.1979 16.1535 33.7613 16.9698C33.3283 17.7862 32.709 18.4126 31.9033 18.8492C31.0976 19.2822 30.1411 19.4987 29.0337 19.4987ZM27.6389 17.252H28.9326C29.543 17.252 30.0595 17.1491 30.4818 16.9432C30.9077 16.7338 31.2289 16.3949 31.4454 15.9264C31.6655 15.4543 31.7755 14.8261 31.7755 14.0417C31.7755 13.2573 31.6655 12.6326 31.4454 12.1677C31.2254 11.6992 30.9006 11.362 30.4712 11.1562C30.0453 10.9467 29.52 10.842 28.8953 10.842H27.6389V17.252ZM39.772 19.6531C38.9131 19.6531 38.1748 19.4774 37.5573 19.126C36.9432 18.7711 36.4694 18.2777 36.1358 17.646C35.8057 17.0106 35.6407 16.2742 35.6407 15.4366C35.6407 14.5954 35.8057 13.8589 36.1358 13.2271C36.4694 12.5918 36.9432 12.0985 37.5573 11.7471C38.1748 11.3922 38.9131 11.2147 39.772 11.2147C40.6309 11.2147 41.3674 11.3922 41.9814 11.7471C42.599 12.0985 43.0728 12.5918 43.4029 13.2271C43.7365 13.8589 43.9033 14.5954 43.9033 15.4366C43.9033 16.2742 43.7365 17.0106 43.4029 17.646C43.0728 18.2777 42.599 18.7711 41.9814 19.126C41.3674 19.4774 40.6309 19.6531 39.772 19.6531ZM39.788 17.6886C40.1003 17.6886 40.3647 17.5927 40.5812 17.4011C40.7977 17.2094 40.9628 16.9432 41.0763 16.6025C41.1935 16.2618 41.252 15.8678 41.252 15.4206C41.252 14.9663 41.1935 14.5688 41.0763 14.228C40.9628 13.8873 40.7977 13.6211 40.5812 13.4295C40.3647 13.2378 40.1003 13.142 39.788 13.142C39.465 13.142 39.1917 13.2378 38.9681 13.4295C38.748 13.6211 38.5794 13.8873 38.4623 14.228C38.3487 14.5688 38.2919 14.9663 38.2919 15.4206C38.2919 15.8678 38.3487 16.2618 38.4623 16.6025C38.5794 16.9432 38.748 17.2094 38.9681 17.4011C39.1917 17.5927 39.465 17.6886 39.788 17.6886ZM49.0542 19.6531C48.1917 19.6531 47.4517 19.4756 46.8341 19.1207C46.2201 18.7658 45.748 18.2724 45.418 17.6406C45.0879 17.0053 44.9228 16.2706 44.9228 15.4366C44.9228 14.5989 45.0879 13.8642 45.418 13.2325C45.7516 12.5972 46.2254 12.102 46.8394 11.7471C47.457 11.3922 48.1935 11.2147 49.0488 11.2147C49.8048 11.2147 50.4632 11.3514 51.024 11.6247C51.5883 11.8979 52.0284 12.2848 52.3443 12.7853C52.6638 13.2822 52.8323 13.866 52.8501 14.5368H50.4171C50.3674 14.118 50.2254 13.7897 49.9912 13.5519C49.7605 13.3141 49.4588 13.1952 49.0861 13.1952C48.7844 13.1952 48.52 13.2804 48.2929 13.4507C48.0657 13.6176 47.8882 13.866 47.7605 14.1961C47.6362 14.5226 47.5741 14.9272 47.5741 15.4099C47.5741 15.8926 47.6362 16.3008 47.7605 16.6344C47.8882 16.9645 48.0657 17.2147 48.2929 17.3851C48.52 17.5519 48.7844 17.6353 49.0861 17.6353C49.3275 17.6353 49.5404 17.5839 49.725 17.4809C49.9131 17.378 50.0675 17.2272 50.1882 17.0284C50.3088 16.8261 50.3851 16.5812 50.4171 16.2937H52.8501C52.8252 16.9681 52.6567 17.5572 52.3443 18.0612C52.0355 18.5652 51.6008 18.9574 51.04 19.2378C50.4827 19.5146 49.8208 19.6531 49.0542 19.6531ZM58.7982 11.3212V13.2378H53.6394V11.3212H58.7982ZM54.7201 9.36201H57.3235V16.9272C57.3235 17.087 57.3483 17.2165 57.398 17.3159C57.4513 17.4117 57.5276 17.4809 57.6269 17.5235C57.7263 17.5626 57.8452 17.5821 57.9836 17.5821C58.083 17.5821 58.1877 17.5732 58.2977 17.5555C58.4113 17.5342 58.4965 17.5164 58.5533 17.5022L58.9473 19.3815C58.823 19.417 58.6473 19.4614 58.4202 19.5146C58.1966 19.5679 57.9286 19.6016 57.6163 19.6158C57.0058 19.6442 56.4823 19.5732 56.0457 19.4028C55.6127 19.2289 55.2809 18.9592 55.0502 18.5936C54.823 18.228 54.713 17.7684 54.7201 17.2147V9.36201ZM61.5906 19.6531C61.2072 19.6531 60.8789 19.5182 60.6057 19.2485C60.3359 18.9787 60.2028 18.6522 60.2064 18.2689C60.2028 17.8926 60.3359 17.5714 60.6057 17.3052C60.8789 17.0355 61.2072 16.9006 61.5906 16.9006C61.9526 16.9006 62.272 17.0355 62.5489 17.3052C62.8293 17.5714 62.9712 17.8926 62.9748 18.2689C62.9712 18.5244 62.9038 18.7569 62.7725 18.9663C62.6447 19.1757 62.4761 19.3425 62.2667 19.4667C62.0608 19.591 61.8355 19.6531 61.5906 19.6531Z" fill="#242731"/>
</svg>
